<mxfile host="Electron" modified="2023-06-28T09:31:08.974Z" agent="Mozilla/5.0 (X11; Linux x86_64) AppleWebKit/537.36 (KHTML, like Gecko) draw.io/21.5.1 Chrome/112.0.5615.204 Electron/24.6.0 Safari/537.36" etag="LqKxZ1fTZG4atF6rweD_" version="21.5.1" type="device" pages="2">
  <diagram name="Book" id="mNOesNp9m2HxlZpdBSvS">
    <mxGraphModel dx="826" dy="502" grid="1" gridSize="10" guides="1" tooltips="1" connect="1" arrows="1" fold="1" page="1" pageScale="1" pageWidth="827" pageHeight="1169" math="0" shadow="0">
      <root>
        <mxCell id="0" />
        <mxCell id="1" parent="0" />
        <mxCell id="edm1YXmaaJcZn4ZgtYHZ-7" style="edgeStyle=orthogonalEdgeStyle;orthogonalLoop=1;jettySize=auto;html=1;exitX=0.5;exitY=1;exitDx=0;exitDy=0;entryX=0.5;entryY=1;entryDx=0;entryDy=0;curved=1;" edge="1" parent="1" source="Hc0-UtIX5wwCF7WT8AfO-1" target="Hc0-UtIX5wwCF7WT8AfO-3">
          <mxGeometry relative="1" as="geometry" />
        </mxCell>
        <UserObject label="Chapter Index" link="data:page/id,ZhRU6m7lLsBDf3CTKnqZ" id="Hc0-UtIX5wwCF7WT8AfO-1">
          <mxCell style="rounded=0;whiteSpace=wrap;html=1;fillColor=none;dashed=1;fontSize=16;fontFamily=Courier New;" vertex="1" parent="1">
            <mxGeometry x="79" y="535" width="120" height="240" as="geometry" />
          </mxCell>
        </UserObject>
        <mxCell id="edm1YXmaaJcZn4ZgtYHZ-6" style="edgeStyle=orthogonalEdgeStyle;orthogonalLoop=1;jettySize=auto;html=1;exitX=0.5;exitY=0;exitDx=0;exitDy=0;entryX=0.5;entryY=0;entryDx=0;entryDy=0;curved=1;" edge="1" parent="1" source="Hc0-UtIX5wwCF7WT8AfO-3" target="Hc0-UtIX5wwCF7WT8AfO-1">
          <mxGeometry relative="1" as="geometry" />
        </mxCell>
        <mxCell id="edm1YXmaaJcZn4ZgtYHZ-8" style="edgeStyle=orthogonalEdgeStyle;orthogonalLoop=1;jettySize=auto;html=1;exitX=0.434;exitY=0.999;exitDx=0;exitDy=0;entryX=0.5;entryY=1;entryDx=0;entryDy=0;curved=1;exitPerimeter=0;" edge="1" parent="1" source="Hc0-UtIX5wwCF7WT8AfO-3" target="Hc0-UtIX5wwCF7WT8AfO-4">
          <mxGeometry relative="1" as="geometry" />
        </mxCell>
        <mxCell id="Hc0-UtIX5wwCF7WT8AfO-3" value="Chapter Page" style="rounded=0;whiteSpace=wrap;html=1;fillColor=none;dashed=1;fontSize=16;fontFamily=Courier New;" vertex="1" parent="1">
          <mxGeometry x="263" y="535" width="320" height="240" as="geometry" />
        </mxCell>
        <mxCell id="edm1YXmaaJcZn4ZgtYHZ-3" style="edgeStyle=orthogonalEdgeStyle;orthogonalLoop=1;jettySize=auto;html=1;exitX=0.5;exitY=0;exitDx=0;exitDy=0;entryX=0.472;entryY=-0.003;entryDx=0;entryDy=0;entryPerimeter=0;curved=1;" edge="1" parent="1" source="Hc0-UtIX5wwCF7WT8AfO-4" target="Hc0-UtIX5wwCF7WT8AfO-3">
          <mxGeometry relative="1" as="geometry" />
        </mxCell>
        <mxCell id="Hc0-UtIX5wwCF7WT8AfO-4" value="On This Page" style="rounded=0;whiteSpace=wrap;html=1;fillColor=none;dashed=1;fontSize=16;fontFamily=Courier New;" vertex="1" parent="1">
          <mxGeometry x="649" y="535" width="100" height="240" as="geometry" />
        </mxCell>
        <mxCell id="Hc0-UtIX5wwCF7WT8AfO-5" value="" style="rounded=0;whiteSpace=wrap;html=1;fillStyle=zigzag-line;fillColor=#E3E3E3;" vertex="1" parent="1">
          <mxGeometry x="89" y="545" width="100" height="20" as="geometry" />
        </mxCell>
        <mxCell id="Hc0-UtIX5wwCF7WT8AfO-6" value="" style="rounded=0;whiteSpace=wrap;html=1;fillStyle=zigzag-line;fillColor=#E3E3E3;" vertex="1" parent="1">
          <mxGeometry x="89" y="575" width="100" height="20" as="geometry" />
        </mxCell>
        <mxCell id="Hc0-UtIX5wwCF7WT8AfO-7" value="" style="rounded=0;whiteSpace=wrap;html=1;fillStyle=zigzag-line;fillColor=#E3E3E3;" vertex="1" parent="1">
          <mxGeometry x="89" y="605" width="100" height="20" as="geometry" />
        </mxCell>
        <mxCell id="Hc0-UtIX5wwCF7WT8AfO-8" value="" style="rounded=0;whiteSpace=wrap;html=1;fillStyle=zigzag-line;fillColor=#E3E3E3;" vertex="1" parent="1">
          <mxGeometry x="89" y="685" width="100" height="20" as="geometry" />
        </mxCell>
        <mxCell id="Hc0-UtIX5wwCF7WT8AfO-9" value="" style="rounded=0;whiteSpace=wrap;html=1;fillStyle=zigzag-line;fillColor=#E3E3E3;" vertex="1" parent="1">
          <mxGeometry x="89" y="715" width="100" height="20" as="geometry" />
        </mxCell>
        <mxCell id="Hc0-UtIX5wwCF7WT8AfO-10" value="" style="rounded=0;whiteSpace=wrap;html=1;fillStyle=zigzag-line;fillColor=#E3E3E3;" vertex="1" parent="1">
          <mxGeometry x="89" y="745" width="100" height="20" as="geometry" />
        </mxCell>
        <mxCell id="Hc0-UtIX5wwCF7WT8AfO-11" value="" style="rounded=0;whiteSpace=wrap;html=1;fillStyle=zigzag-line;fillColor=#E3E3E3;" vertex="1" parent="1">
          <mxGeometry x="657" y="545" width="85" height="20" as="geometry" />
        </mxCell>
        <mxCell id="Hc0-UtIX5wwCF7WT8AfO-12" value="" style="rounded=0;whiteSpace=wrap;html=1;fillStyle=zigzag-line;fillColor=#E3E3E3;" vertex="1" parent="1">
          <mxGeometry x="657" y="575" width="85" height="20" as="geometry" />
        </mxCell>
        <mxCell id="Hc0-UtIX5wwCF7WT8AfO-13" value="" style="rounded=0;whiteSpace=wrap;html=1;fillStyle=zigzag-line;fillColor=#E3E3E3;" vertex="1" parent="1">
          <mxGeometry x="657" y="605" width="85" height="20" as="geometry" />
        </mxCell>
        <mxCell id="Hc0-UtIX5wwCF7WT8AfO-14" value="" style="rounded=0;whiteSpace=wrap;html=1;fillStyle=zigzag-line;fillColor=#E3E3E3;" vertex="1" parent="1">
          <mxGeometry x="657" y="685" width="85" height="20" as="geometry" />
        </mxCell>
        <mxCell id="Hc0-UtIX5wwCF7WT8AfO-15" value="" style="rounded=0;whiteSpace=wrap;html=1;fillStyle=zigzag-line;fillColor=#E3E3E3;" vertex="1" parent="1">
          <mxGeometry x="657" y="715" width="85" height="20" as="geometry" />
        </mxCell>
        <mxCell id="Hc0-UtIX5wwCF7WT8AfO-16" value="" style="rounded=0;whiteSpace=wrap;html=1;fillStyle=zigzag-line;fillColor=#E3E3E3;" vertex="1" parent="1">
          <mxGeometry x="657" y="745" width="85" height="20" as="geometry" />
        </mxCell>
        <mxCell id="Hc0-UtIX5wwCF7WT8AfO-17" value="" style="endArrow=none;html=1;rounded=0;" edge="1" parent="1">
          <mxGeometry width="50" height="50" relative="1" as="geometry">
            <mxPoint x="321" y="564" as="sourcePoint" />
            <mxPoint x="521" y="564" as="targetPoint" />
            <Array as="points">
              <mxPoint x="429" y="564" />
            </Array>
          </mxGeometry>
        </mxCell>
        <mxCell id="Hc0-UtIX5wwCF7WT8AfO-18" value="Add Text Cell" style="text;html=1;strokeColor=none;fillColor=none;align=center;verticalAlign=middle;whiteSpace=wrap;rounded=0;" vertex="1" parent="1">
          <mxGeometry x="374.75" y="540" width="96.5" height="20" as="geometry" />
        </mxCell>
        <mxCell id="edm1YXmaaJcZn4ZgtYHZ-9" value="Components are connected together by sharing the same hooks. Thus, a hook update in any of these components will trigger update on the another." style="text;html=1;strokeColor=none;fillColor=none;align=center;verticalAlign=middle;whiteSpace=wrap;rounded=0;fontFamily=Courier New;fontSize=16;" vertex="1" parent="1">
          <mxGeometry x="221" y="375" width="404" height="90" as="geometry" />
        </mxCell>
      </root>
    </mxGraphModel>
  </diagram>
  <diagram id="ZhRU6m7lLsBDf3CTKnqZ" name="Chapter Index">
    <mxGraphModel dx="1010" dy="613" grid="1" gridSize="10" guides="1" tooltips="1" connect="1" arrows="1" fold="1" page="1" pageScale="1" pageWidth="827" pageHeight="1169" math="0" shadow="0">
      <root>
        <mxCell id="0" />
        <mxCell id="1" parent="0" />
        <mxCell id="m4hWZf4lyxqrfkeCmAdm-1" value="function ChapterIndex({selectedChapter, setSelectedChapter, chapters}) {&lt;br&gt;&amp;nbsp; &amp;nbsp; return (&lt;br&gt;&lt;span style=&quot;white-space: pre;&quot;&gt;&#x9;&lt;/span&gt;&amp;lt;Container&amp;gt;&lt;br&gt;&lt;span style=&quot;white-space: pre;&quot;&gt;&#x9;&amp;nbsp;&lt;/span&gt;&amp;nbsp; &amp;nbsp;{chapters.map((chapter) =&amp;gt; (&lt;br&gt;&lt;span style=&quot;white-space: pre;&quot;&gt;&#x9;&lt;/span&gt;&amp;nbsp; &amp;nbsp; &amp;nbsp; &amp;nbsp; &amp;lt;Cell&lt;br&gt;&lt;span style=&quot;white-space: pre;&quot;&gt;&#x9;&lt;/span&gt;&lt;span style=&quot;white-space: pre;&quot;&gt;&#x9;&lt;/span&gt;&amp;nbsp;key={chapter}&lt;br&gt;&lt;span style=&quot;white-space: pre;&quot;&gt;&#x9;&lt;/span&gt;&lt;span style=&quot;white-space: pre;&quot;&gt;&#x9;&lt;/span&gt;&amp;nbsp;active={chapter === selectedChapter}&lt;br&gt;&lt;span style=&quot;white-space: pre;&quot;&gt;&#x9;&lt;/span&gt;&lt;span style=&quot;white-space: pre;&quot;&gt;&#x9;&lt;/span&gt;&amp;nbsp;onClick={(e) =&amp;gt; setSelectedChapter(e.target.getAttribute(&#39;key&#39;))}&lt;br&gt;&lt;span style=&quot;white-space: pre;&quot;&gt;&#x9;&lt;/span&gt;&lt;span style=&quot;white-space: pre;&quot;&gt;&#x9;&lt;/span&gt;&amp;gt;&lt;br&gt;&lt;span style=&quot;white-space: pre;&quot;&gt;&#x9;&lt;/span&gt;&lt;span style=&quot;white-space: pre;&quot;&gt;&#x9;&lt;/span&gt;&amp;nbsp; &amp;nbsp; {chapter}&lt;br&gt;&lt;span style=&quot;white-space: pre;&quot;&gt;&#x9;&lt;/span&gt;&lt;span style=&quot;white-space: pre;&quot;&gt;&#x9;&lt;/span&gt;&amp;lt;/Cell&amp;gt;&lt;br&gt;&lt;span style=&quot;white-space: pre;&quot;&gt;&#x9;&lt;/span&gt;&amp;nbsp; &amp;nbsp; ))}&lt;br&gt;&lt;span style=&quot;white-space: pre;&quot;&gt;&#x9;&lt;/span&gt;&amp;lt;/Container&amp;gt;&lt;br&gt;&amp;nbsp; &amp;nbsp; );&lt;br&gt;}" style="text;html=1;strokeColor=none;fillColor=none;align=left;verticalAlign=top;whiteSpace=wrap;rounded=0;fontFamily=Courier New;fontSize=16;" vertex="1" parent="1">
          <mxGeometry x="9" y="270" width="810" height="300" as="geometry" />
        </mxCell>
        <mxCell id="m4hWZf4lyxqrfkeCmAdm-2" value="" style="rounded=0;whiteSpace=wrap;html=1;fillColor=none;" vertex="1" parent="1">
          <mxGeometry x="329" y="720" width="170" height="270" as="geometry" />
        </mxCell>
        <mxCell id="m4hWZf4lyxqrfkeCmAdm-3" value="Active" style="rounded=0;whiteSpace=wrap;html=1;fontFamily=Courier New;" vertex="1" parent="1">
          <mxGeometry x="340" y="730" width="146" height="20" as="geometry" />
        </mxCell>
        <mxCell id="m4hWZf4lyxqrfkeCmAdm-4" value="" style="rounded=0;whiteSpace=wrap;html=1;fontFamily=Courier New;fillColor=none;dashed=1;" vertex="1" parent="1">
          <mxGeometry x="340" y="760" width="146" height="20" as="geometry" />
        </mxCell>
        <mxCell id="m4hWZf4lyxqrfkeCmAdm-5" value="" style="rounded=0;whiteSpace=wrap;html=1;fontFamily=Courier New;fillColor=none;dashed=1;" vertex="1" parent="1">
          <mxGeometry x="340" y="790" width="146" height="20" as="geometry" />
        </mxCell>
        <mxCell id="m4hWZf4lyxqrfkeCmAdm-6" value="" style="rounded=0;whiteSpace=wrap;html=1;fontFamily=Courier New;fillColor=none;dashed=1;" vertex="1" parent="1">
          <mxGeometry x="340" y="820" width="146" height="20" as="geometry" />
        </mxCell>
        <mxCell id="m4hWZf4lyxqrfkeCmAdm-7" value="" style="rounded=0;whiteSpace=wrap;html=1;fontFamily=Courier New;fillColor=none;dashed=1;" vertex="1" parent="1">
          <mxGeometry x="340" y="849" width="146" height="20" as="geometry" />
        </mxCell>
        <mxCell id="m4hWZf4lyxqrfkeCmAdm-8" value="" style="rounded=0;whiteSpace=wrap;html=1;fontFamily=Courier New;fillColor=none;dashed=1;" vertex="1" parent="1">
          <mxGeometry x="340" y="876" width="146" height="20" as="geometry" />
        </mxCell>
        <mxCell id="m4hWZf4lyxqrfkeCmAdm-9" value="" style="rounded=0;whiteSpace=wrap;html=1;fontFamily=Courier New;fillColor=none;dashed=1;" vertex="1" parent="1">
          <mxGeometry x="340" y="904" width="146" height="20" as="geometry" />
        </mxCell>
        <mxCell id="m4hWZf4lyxqrfkeCmAdm-10" value="" style="rounded=0;whiteSpace=wrap;html=1;fontFamily=Courier New;fillColor=none;dashed=1;" vertex="1" parent="1">
          <mxGeometry x="340" y="932" width="146" height="20" as="geometry" />
        </mxCell>
        <mxCell id="m4hWZf4lyxqrfkeCmAdm-11" value="" style="rounded=0;whiteSpace=wrap;html=1;fontFamily=Courier New;fillColor=none;dashed=1;" vertex="1" parent="1">
          <mxGeometry x="340" y="960" width="146" height="20" as="geometry" />
        </mxCell>
        <mxCell id="m4hWZf4lyxqrfkeCmAdm-12" value="Chapter Index" style="text;html=1;strokeColor=none;fillColor=none;align=center;verticalAlign=middle;whiteSpace=wrap;rounded=0;fontFamily=Courier New;fontSize=16;" vertex="1" parent="1">
          <mxGeometry x="343" y="680" width="140" height="30" as="geometry" />
        </mxCell>
        <mxCell id="m4hWZf4lyxqrfkeCmAdm-14" value="" style="curved=1;endArrow=none;html=1;rounded=0;exitX=0.5;exitY=1;exitDx=0;exitDy=0;entryX=0.5;entryY=0;entryDx=0;entryDy=0;endFill=0;dashed=1;" edge="1" parent="1" source="m4hWZf4lyxqrfkeCmAdm-1" target="m4hWZf4lyxqrfkeCmAdm-12">
          <mxGeometry width="50" height="50" relative="1" as="geometry">
            <mxPoint x="439" y="600" as="sourcePoint" />
            <mxPoint x="389" y="650" as="targetPoint" />
            <Array as="points">
              <mxPoint x="389" y="600" />
              <mxPoint x="439" y="650" />
            </Array>
          </mxGeometry>
        </mxCell>
      </root>
    </mxGraphModel>
  </diagram>
</mxfile>
